<svg xmlns="http://www.w3.org/2000/svg" viewBox="0 0 48 32" width="48" height="32">
  <rect fill="#006FCF" width="48" height="32" rx="4"/>
  <path fill="#FFFFFF" d="M7 12h3.5l.8 1.8.8-1.8H16v5.3l-2.2-3.5-.8 1.8h-1.5l-.8-1.8v3.5H7v-5.3zm0 6h3.8l.6-1.2h1.2l.6 1.2h4v-1l.4 1h2.2l.4-1v1H31v-5.3h-3.8l-.4.9-.4-.9h-4v.9l-.4-.9h-3.6l-1.4 3-1.4-3H7v5.3zm14-6h2.3l2.7 4v-4h2.4l1.5 2.1 1.5-2.1h2.4v5.3h-1.9l-2-2.7v2.7h-3l-.6-1.2h-3l-.6 1.2h-2.1l2.4-5.3zm3.7 3.2l1-2.1 1 2.1h-2zm10.3-3.2h6v1.2h-4.1v.8h4v1.2h-4v.9h4.1V18H35v-6z"/>
</svg>
