<svg xmlns="http://www.w3.org/2000/svg" viewBox="0 0 48 32" width="48" height="32">
  <rect fill="#F7F7F7" width="48" height="32" rx="4"/>
  <path fill="#003087" d="M18.5 8h5.2c2.4 0 4.1 1.5 3.8 4-.4 3.2-2.6 4.8-5.3 4.8h-1.4c-.4 0-.7.3-.8.7l-.7 4.3c0 .2-.2.4-.4.4h-2.6c-.3 0-.5-.2-.4-.5l2.2-13.2c.1-.3.3-.5.6-.5z"/>
  <path fill="#0070E0" d="M32.5 8h5.2c2.4 0 4.1 1.5 3.8 4-.4 3.2-2.6 4.8-5.3 4.8h-1.4c-.4 0-.7.3-.8.7l-.7 4.3c0 .2-.2.4-.4.4h-2.6c-.3 0-.5-.2-.4-.5l2.2-13.2c.1-.3.3-.5.6-.5z"/>
  <path fill="#003087" d="M14 24h2.6c.2 0 .4-.2.4-.4l.7-4.3c.1-.4.4-.7.8-.7h1.4c2.7 0 4.9-1.6 5.3-4.8.3-2.5-1.4-4-3.8-4h-5.2c-.3 0-.5.2-.6.5L13.5 23.5c0 .3.1.5.5.5z"/>
</svg>
