<svg xmlns="http://www.w3.org/2000/svg" viewBox="0 0 48 32" width="48" height="32">
  <rect fill="#1A1F71" width="48" height="32" rx="4"/>
  <path fill="#FFFFFF" d="M19.5 21h-2.7l1.7-10.5h2.7L19.5 21zm-5.3 0l-2.6-7.2-.3 1.5-.9 4.6c-.1.5-.4.8-.9.8H5.2l-.1-.3c.8-.2 1.7-.5 2.2-.8.3-.2.4-.3.5-.6l2-7.5h2.8l4.3 9.5h-2.7zm13.3.2c-.9 0-1.7-.2-2.2-.5l.3-1.7.2.1c.6.3 1.3.4 2.1.4.7 0 1.1-.3 1.1-.7 0-.3-.3-.5-1-.8-.8-.3-1.9-.9-1.9-2 0-1.4 1.5-2.4 3.6-2.4.8 0 1.5.2 1.9.3l-.3 1.6-.1-.1c-.4-.1-1-.3-1.6-.3-.8 0-1.2.3-1.2.6 0 .3.4.5 1.1.8 1.1.5 1.8 1.1 1.8 2.1 0 1.5-1.5 2.6-3.8 2.6zm11.4-.2l-2-10.5h-2.2c-.5 0-.9.3-1.1.8l-3.9 9.7h2.7l.5-1.5h3.3l.3 1.5h2.4zm-3.2-3.5l1.4-3.7.8 3.7h-2.2z"/>
</svg>
